<svg id="_01" data-name="01" xmlns="http://www.w3.org/2000/svg" viewBox="0 0 1280 720"><defs><style>.cls-1{fill:#4d4d4d;}</style></defs><g id="LogoType"><path id="Path_3" data-name="Path 3" class="cls-1" d="M387.82,164.47h52.51v-6.22a123.83,123.83,0,0,0-.7-12.92c15.31.24,20,.48,20,2.28,0,1-1.32,2-3.48,2.39-.24,2.87-.24,6.95-.24,6.95l.12,7.54h23v14.68H456.12l.24,32.77c0,6,.36,11,.36,12.08v1.2c0,16.63-13.52,20.1-27.75,20.1h-3c-.6,0-1-.12-1.08-.7a80.52,80.52,0,0,0-10-16.14c4.3.36,10.52,1.67,15.66,1.67,5.74,0,10.29-1.56,10.29-7.77,0,0-.12-13.75-.24-30.74A137.92,137.92,0,0,1,394.52,234a1.21,1.21,0,0,1-.83-.48A82.73,82.73,0,0,0,377.9,223a116.83,116.83,0,0,0,53.46-43.78H387.83Z"/><path id="Path_4" data-name="Path 4" class="cls-1" d="M502.15,151.67a93.76,93.76,0,0,1,29.55,22L520.46,187.2c-.24.11-.37.23-.6.23a.87.87,0,0,1-.7-.48,87.46,87.46,0,0,0-28.1-24.28ZM584.94,184a1.7,1.7,0,0,1,.23.7c0,.24-.12.35-.36.59a162,162,0,0,1-76.52,54.54v.48c0,1.68-.48,3-1.43,3-2.52,0-14.24-15.3-14.95-16.26a1.41,1.41,0,0,1-.48-.95c0-.25.23-.36.95-.48,42.7-7.18,70.45-37.57,86.12-59.45A134.51,134.51,0,0,0,584.92,184Z"/><path id="Path_5" data-name="Path 5" class="cls-1" d="M599,173.55l72.13-.11c1,0,1.43-1,2.39-1,.48,0,12.92,7,12.92,8.49,0,.69-.84,1.31-2.51,2a78.71,78.71,0,0,1-63.87,59.92,1.45,1.45,0,0,1-1.43-.59,72.39,72.39,0,0,0-15.2-13.88c37.68-3.11,55-20.93,61.84-40.67l-66.14.48Zm9.21-26.19h67v14.12H608.33Z"/><path id="Path_6" data-name="Path 6" class="cls-1" d="M748.28,192A114.35,114.35,0,0,1,712,213a1.45,1.45,0,0,1-1.08-.48,88.74,88.74,0,0,0-15.06-11,152.78,152.78,0,0,0,76.9-57.41s10.76,5.38,16,9c1.08.7,1.55,1.44,1.55,1.92,0,.69-.69,1.08-2,1.08a10.15,10.15,0,0,1-2.51-.37,270.57,270.57,0,0,1-21.53,22.49v67.1H747.88Z"/><path id="Path_7" data-name="Path 7" class="cls-1" d="M815.48,151.67a93.76,93.76,0,0,1,29.55,22L833.78,187.2a1.32,1.32,0,0,1-.59.23.87.87,0,0,1-.7-.48,87.46,87.46,0,0,0-28.1-24.28ZM898.27,184a1.86,1.86,0,0,1,.23.7c0,.24-.12.35-.36.59a162,162,0,0,1-76.52,54.54v.48c0,1.68-.47,3-1.43,3-2.52,0-14.24-15.3-15-16.26a1.35,1.35,0,0,1-.48-.95c0-.25.23-.36,1-.48,42.7-7.18,70.45-37.57,86.12-59.45A134.51,134.51,0,0,0,898.25,184Z"/><path id="Path_8" data-name="Path 8" class="cls-1" d="M204.18,346.1H316.47V321.82s-.31-14.26-1.21-23.65c38.26,1.22,51,2.44,51,6.37,0,2.43-4.24,4.87-10.62,6.38-.31,5.46-.91,12.74-.91,17.6v17.6H467V381H416.62a248,248,0,0,1-54.31,106.82c31.25,24.88,71.92,41.26,119,49.77,0,0-28.22,21.56-35.48,33.39-.6,1.21-1.21,1.51-2.12,1.51a300.84,300.84,0,0,1-106.81-58.56,301.53,301.53,0,0,1-107.73,61.6,3.34,3.34,0,0,1-1.52.3,2,2,0,0,1-2.12-1.21C220,563.71,190,542.77,190,542.77a261.5,261.5,0,0,0,120.48-55.23A242.69,242.69,0,0,1,258,381H204.27ZM297.05,381a176.51,176.51,0,0,0,38.54,81.33A178.06,178.06,0,0,0,374.43,381Z"/><path id="Path_9" data-name="Path 9" class="cls-1" d="M549.84,457.16c0-2.42.31-18.51.91-36.11a250.81,250.81,0,0,1-25.49,32.17c-.31,0-.61-.31-1.21-.91a244.19,244.19,0,0,0-32.17-17.91C537.1,397.69,568.65,324.85,575.36,300c5.76,1.52,27.91,8.5,36.71,12.14,3.34,1.21,4.87,3,4.87,4.25,0,2.13-3,3.64-7.28,3.64-.91,0-1.82-.3-2.73-.3a581,581,0,0,1-26.7,54c4.25,0,7.28.31,7.88.31,4.87.6,6.68,2.12,6.68,3.64,0,2.43-3.34,4.87-9.1,6.38-.31,2.42-.31,21.23-.31,21.23l-1.21,169.64H547.75Zm81.93-131.4s0-14.26-.91-22.76c0,0,30.35.91,41.58,2.43,3.33.3,5.46,1.82,5.46,3.34,0,1.82-2.13,3.64-8.19,4.87-.31,5.15-.61,8.49-.61,15.48l-.3,76.47a284.26,284.26,0,0,0,71-60.39s21.24,19.42,30.34,28.83a6.25,6.25,0,0,1,2.13,4.25c0,1.51-1.21,2.42-3.64,2.42a24.41,24.41,0,0,1-7-1.51,554.91,554.91,0,0,1-92.86,68c-.31,38.26-.31,71-.31,71.92.61,13,12.75,14.57,30,14.57,34,0,43.09-5.15,43.09-55V467.47a393.49,393.49,0,0,0,36.11,29.43c1.21.6,1.21,1.21,1.21,2.73-5.16,65.85-39.14,68-83.47,68-34.29,0-64.34-2.43-64.34-40.67Z"/><path id="Path_10" data-name="Path 10" class="cls-1" d="M860.29,467.5a153.77,153.77,0,0,1-30.35,19.42c-.6,0-.91-.3-1.82-1.21A191.57,191.57,0,0,0,795,466,178.62,178.62,0,0,0,857,428.66a201.53,201.53,0,0,0-21.85-13.35L853,394.06a248.39,248.39,0,0,1,23.66,14,195.11,195.11,0,0,0,11.82-15.77,227.78,227.78,0,0,0-24-12.44l16.39-22.46a168.69,168.69,0,0,1,21.85,11.23c4.55-8.8,7.89-16.39,10.32-22.46H877.26C853,387.7,829,409.85,826,409.85a2.22,2.22,0,0,1-1.82-.61,151.72,151.72,0,0,0-30-16.08c42.18-26.71,66.45-78.9,73.13-96.5,0,0,25.19,5.46,32.78,7.58,3,.91,4.55,2.43,4.55,3.64,0,2.13-3.34,3.94-9.4,4.25,0,0-1.52,3-3.95,8.49h37a6.37,6.37,0,0,0,3-1.21c-.91-2.43-1.82-4.55-2.74-6.68l29.14-8.49a347.77,347.77,0,0,0,41.57,74.34,161.27,161.27,0,0,0,24.28-32.77H981.05l-.29-28.52h63.42c1.51,0,3-1.82,4.55-1.82.92,0,25.49,14.56,25.49,18.81,0,1.82-2.42,3.34-6.68,5.16a410.26,410.26,0,0,1-47.33,63.73,196.6,196.6,0,0,0,69.79,47,203.28,203.28,0,0,0-31.86,23.06,2.63,2.63,0,0,1-1.82.91,82.71,82.71,0,0,1-20-11.83V483.6h-74v22.45c0,15.48.91,23.37.91,25.49v1.52c0,31.56-23.36,41.27-52.17,41.27-13.05,0-13.66-.6-14.26-2.73-3-9.41-20.94-32.17-20.94-32.17a186.43,186.43,0,0,0,30.34,3.34c14.27,0,21.86-3.94,21.86-14.57V483.59H860.3Zm44.6,37.94c2.74,2.12,4,3.64,4,5.16,0,1.81-2.43,2.72-5.46,2.72a16.77,16.77,0,0,1-5.16-.91c-37.33,42.79-58.87,51-60.69,51-.61,0-1.22-.31-2.13-1.21a181,181,0,0,0-31.56-19.43,138.47,138.47,0,0,0,69.8-53.41,315.49,315.49,0,0,1,31.26,16.06Zm120.78-51a261.91,261.91,0,0,1-37.62-37.93v17.3h-80.7V419.25a257.42,257.42,0,0,1-31.26,35.2Zm-46.42-49.16a363.92,363.92,0,0,1-34-56.14A303,303,0,0,1,917,405.29Zm22.45,85.56a208,208,0,0,0,72.83,47A197,197,0,0,0,1040.85,560a2.29,2.29,0,0,1-2.13,1.21c-6.67,0-47.64-32.16-64.64-54Z"/></g></svg>